<?xml version="1.0" encoding="utf-8"?>
<!-- Generator: Adobe Illustrator 16.0.3, SVG Export Plug-In . SVG Version: 6.00 Build 0)  -->
<!DOCTYPE svg PUBLIC "-//W3C//DTD SVG 1.1//EN" "http://www.w3.org/Graphics/SVG/1.1/DTD/svg11.dtd">
<svg version="1.1" id="Layer_1" xmlns="http://www.w3.org/2000/svg" xmlns:xlink="http://www.w3.org/1999/xlink" x="0px" y="0px"
	 width="1280px" height="1280px" viewBox="0 0 1280 1280" enable-background="new 0 0 1280 1280" xml:space="preserve">
<g>
	<circle fill="none" stroke="#E9E9E9" stroke-miterlimit="10" cx="639.865" cy="639.851" r="640"/>
	<path fill="#E9B5A4" d="M640.994,580.204c0.035-0.775,0.771-1.297,1.479-1.413l-0.004-0.136c-0.604,0.055-1.068,0.48-1.592,0.773
		c-0.178,0.104-0.375,0.125-0.568,0.075c-0.556-0.114-1.054-0.388-1.604-0.519l1.353-0.89c0.152-0.095,0.332-0.166,0.52-0.127
		c0.641,0.108,1.215,0.493,1.865,0.36l-0.027-0.12c-0.525,0.005-1.039-0.078-1.438-0.438c-0.316-0.296-0.479-0.769-0.359-1.177
		c0.062-0.271,0.312-0.494,0.602-0.554c0.479-0.112,1,0.062,1.312,0.418c-0.304,0.021-0.608,0.157-0.72,0.441
		c-0.104,0.281-0.094,0.591,0.113,0.837c0.113,0.122,0.293,0.248,0.475,0.176c-0.008-0.16,0.072-0.33,0.244-0.361
		c-0.035,0.113-0.098,0.232-0.059,0.354c0.223-0.028,0.426-0.127,0.562-0.291c-0.129-0.034-0.305-0.037-0.312-0.196
		c-0.021-0.255,0.305-0.4,0.533-0.283c0.271,0.162,0.135,0.496-0.07,0.686c-0.207,0.173-0.436,0.251-0.688,0.332l0.021,0.146
		c0.207,0.062,0.428-0.104,0.646-0.168c0.308-0.088,0.593,0.084,0.888,0.146c-0.234,0.141-0.455,0.291-0.729,0.357
		c-0.146,0.043-0.275-0.036-0.42-0.044c-0.107,0.002-0.238-0.018-0.35,0.032l0.018,0.146c0.229,0.066,0.457,0.023,0.688,0.134
		c0.174,0.073,0.301,0.188,0.371,0.364c0.039,0.115,0.014,0.229-0.09,0.316c-0.152,0.131-0.393,0.114-0.531-0.039l0.008-0.258
		l0.213-0.115c-0.166-0.125-0.426-0.188-0.633-0.137l0.146,0.312c-0.191,0.024-0.293-0.146-0.336-0.302
		c-0.279,0.037-0.479,0.322-0.471,0.595c-0.012,0.235,0.055,0.464,0.232,0.64c0.205,0.188,0.479,0.188,0.742,0.164
		c-0.188,0.355-0.533,0.619-0.938,0.718c-0.365,0.09-0.771-0.074-0.971-0.396C641.006,580.601,640.988,580.403,640.994,580.204z"/>
	<polygon fill="#CD562D" points="639.665,583.905 642.408,584.949 642.408,584.948 642.41,584.949 644.615,583.129 641.982,582.069 
			"/>
	<path fill="#E9B5A4" d="M639.909,569.917c0.064-0.771,0.841-1.248,1.556-1.323l0.004-0.134c-0.605,0.017-1.1,0.421-1.633,0.683
		c-0.184,0.094-0.383,0.104-0.573,0.041c-0.546-0.144-1.022-0.44-1.57-0.604l1.396-0.805c0.156-0.086,0.34-0.146,0.521-0.103
		c0.635,0.146,1.187,0.562,1.843,0.466l-0.021-0.115c-0.521-0.025-1.03-0.144-1.403-0.521c-0.312-0.312-0.438-0.788-0.306-1.189
		c0.083-0.267,0.352-0.479,0.635-0.52c0.479-0.089,0.993,0.114,1.279,0.489c-0.301,0.006-0.616,0.123-0.734,0.396
		c-0.119,0.278-0.125,0.586,0.062,0.85c0.107,0.128,0.279,0.264,0.463,0.198c0.002-0.155,0.095-0.321,0.271-0.351
		c-0.043,0.113-0.111,0.229-0.078,0.351c0.225-0.017,0.432-0.104,0.584-0.261c-0.127-0.041-0.305-0.054-0.302-0.213
		c-0.007-0.256,0.323-0.388,0.548-0.255c0.262,0.178,0.104,0.505-0.107,0.678c-0.215,0.161-0.448,0.229-0.707,0.292l0.009,0.146
		c0.204,0.067,0.438-0.078,0.655-0.131c0.311-0.069,0.582,0.114,0.875,0.19c-0.242,0.126-0.473,0.271-0.744,0.321
		c-0.146,0.034-0.271-0.057-0.416-0.067c-0.107-0.006-0.236-0.031-0.35,0.017l0.01,0.146c0.217,0.082,0.453,0.054,0.672,0.172
		c0.17,0.087,0.289,0.212,0.354,0.396c0.03,0.118,0.008,0.229-0.104,0.312c-0.164,0.122-0.393,0.091-0.527-0.063l0.02-0.264
		l0.219-0.103c-0.154-0.137-0.413-0.215-0.622-0.175l0.136,0.316c-0.197,0.02-0.283-0.163-0.318-0.315
		c-0.287,0.021-0.498,0.294-0.502,0.562c-0.02,0.234,0.026,0.466,0.192,0.648c0.19,0.206,0.474,0.221,0.729,0.212
		c-0.207,0.347-0.574,0.587-0.979,0.656c-0.368,0.063-0.765-0.12-0.939-0.453C639.892,570.312,639.888,570.116,639.909,569.917z"/>
	<polygon fill="#CD562D" points="638.337,573.517 641.012,574.741 641.01,574.741 641.012,574.741 643.328,573.073 640.771,571.839 
			"/>
	<path fill="#E9B5A4" d="M639.351,559.599c0.109-0.766,0.896-1.211,1.61-1.256l0.01-0.134c-0.606-0.008-1.109,0.376-1.658,0.615
		c-0.187,0.079-0.387,0.086-0.569,0.018c-0.541-0.168-1.017-0.482-1.558-0.672l1.437-0.744c0.16-0.078,0.346-0.132,0.521-0.076
		c0.628,0.17,1.163,0.609,1.824,0.541l-0.016-0.123c-0.526-0.047-1.028-0.18-1.393-0.57c-0.295-0.325-0.4-0.81-0.254-1.201
		c0.1-0.261,0.363-0.463,0.65-0.494c0.483-0.072,0.991,0.151,1.262,0.537c-0.301-0.006-0.623,0.1-0.752,0.373
		c-0.133,0.271-0.146,0.58,0.031,0.846c0.104,0.132,0.27,0.275,0.456,0.221c0.008-0.154,0.104-0.315,0.277-0.339
		c-0.051,0.111-0.117,0.229-0.096,0.352c0.229-0.009,0.438-0.087,0.599-0.236c-0.125-0.045-0.306-0.064-0.294-0.227
		c0.008-0.262,0.344-0.375,0.559-0.232c0.254,0.188,0.088,0.511-0.133,0.676c-0.229,0.152-0.457,0.208-0.724,0.267l0.007,0.146
		c0.197,0.079,0.438-0.062,0.656-0.104c0.312-0.06,0.576,0.145,0.867,0.229c-0.248,0.117-0.479,0.246-0.756,0.291
		c-0.146,0.028-0.273-0.062-0.414-0.086c-0.112-0.01-0.237-0.043-0.35-0.002l0.004,0.146c0.215,0.095,0.45,0.069,0.666,0.198
		c0.164,0.096,0.279,0.229,0.334,0.404c0.026,0.121-0.002,0.232-0.111,0.312c-0.172,0.113-0.396,0.071-0.527-0.095l0.027-0.258
		l0.227-0.094c-0.152-0.146-0.404-0.231-0.615-0.201l0.118,0.328c-0.198,0.006-0.276-0.176-0.312-0.334
		c-0.287,0.008-0.508,0.271-0.521,0.544c-0.028,0.229,0.007,0.466,0.163,0.657c0.185,0.215,0.462,0.235,0.724,0.239
		c-0.224,0.343-0.603,0.562-1.012,0.612c-0.373,0.052-0.757-0.156-0.921-0.495C639.318,559.994,639.322,559.796,639.351,559.599z"/>
	<polygon fill="#CD562D" points="637.613,563.114 640.227,564.468 640.227,564.466 640.227,564.467 642.621,562.914 
		640.123,561.557 	"/>
	<path fill="#E9B5A4" d="M639.157,549.276c0.142-0.768,0.92-1.188,1.644-1.221l0.012-0.135c-0.606-0.021-1.116,0.354-1.67,0.575
		c-0.188,0.074-0.387,0.076-0.568,0.001c-0.537-0.182-1-0.512-1.538-0.707l1.44-0.708c0.162-0.075,0.354-0.124,0.524-0.062
		c0.625,0.185,1.15,0.637,1.81,0.584l-0.01-0.121c-0.521-0.062-1.021-0.205-1.375-0.609c-0.289-0.333-0.391-0.812-0.229-1.206
		c0.098-0.26,0.373-0.456,0.658-0.479c0.481-0.062,0.983,0.172,1.25,0.562c-0.305-0.012-0.625,0.088-0.765,0.357
		c-0.137,0.271-0.161,0.573,0.021,0.848c0.101,0.134,0.264,0.282,0.444,0.23c0.02-0.158,0.113-0.318,0.287-0.33
		c-0.049,0.104-0.125,0.221-0.1,0.344c0.225-0.001,0.438-0.076,0.6-0.228c-0.125-0.05-0.299-0.068-0.289-0.229
		c0.018-0.258,0.354-0.369,0.562-0.224c0.25,0.19,0.076,0.516-0.148,0.676c-0.225,0.146-0.461,0.193-0.723,0.248v0.146
		c0.199,0.085,0.438-0.051,0.66-0.088c0.312-0.05,0.571,0.156,0.857,0.253c-0.25,0.111-0.48,0.235-0.762,0.273
		c-0.147,0.021-0.272-0.072-0.412-0.103c-0.11-0.012-0.235-0.048-0.35-0.011l0.002,0.146c0.211,0.099,0.448,0.084,0.662,0.219
		c0.161,0.096,0.271,0.229,0.319,0.415c0.024,0.123-0.013,0.229-0.121,0.307c-0.177,0.111-0.396,0.062-0.521-0.104l0.035-0.263
		l0.225-0.087c-0.146-0.146-0.396-0.242-0.606-0.218l0.108,0.331c-0.201,0-0.271-0.186-0.301-0.342c-0.287,0-0.512,0.26-0.536,0.529
		c-0.039,0.229-0.012,0.469,0.141,0.658c0.184,0.226,0.454,0.259,0.721,0.271c-0.232,0.333-0.617,0.545-1.03,0.586
		c-0.375,0.039-0.752-0.178-0.904-0.522C639.111,549.67,639.121,549.473,639.157,549.276z"/>
	<polygon fill="#CD562D" points="637.314,552.729 639.884,554.167 642.326,552.692 639.869,551.255 	"/>
	<path fill="#E9B5A4" d="M638.433,580.032c0.252-0.729,1.062-1.046,1.785-0.979l0.029-0.135c-0.604-0.102-1.155,0.199-1.729,0.346
		c-0.188,0.054-0.392,0.021-0.562-0.071c-0.518-0.257-0.936-0.642-1.439-0.897l1.521-0.505c0.17-0.053,0.355-0.079,0.522,0.003
		c0.604,0.258,1.063,0.776,1.729,0.812l0.003-0.125c-0.514-0.129-0.991-0.338-1.29-0.777c-0.246-0.363-0.289-0.854-0.081-1.223
		c0.13-0.24,0.425-0.404,0.714-0.397c0.49-0.007,0.961,0.28,1.174,0.705c-0.297-0.046-0.631,0.015-0.799,0.269
		c-0.169,0.253-0.229,0.561-0.089,0.851c0.083,0.146,0.229,0.312,0.419,0.288c0.031-0.156,0.147-0.31,0.325-0.298
		c-0.062,0.104-0.15,0.203-0.146,0.329c0.228,0.027,0.44-0.02,0.62-0.146c-0.112-0.064-0.289-0.11-0.256-0.271
		c0.041-0.257,0.396-0.326,0.584-0.149c0.228,0.229,0.017,0.524-0.229,0.659c-0.24,0.12-0.48,0.143-0.749,0.153l-0.021,0.148
		c0.188,0.106,0.44,0.006,0.667-0.004c0.316-0.015,0.552,0.229,0.824,0.367c-0.26,0.077-0.51,0.176-0.787,0.178
		c-0.151,0.004-0.264-0.11-0.396-0.152c-0.11-0.024-0.229-0.08-0.351-0.057l-0.018,0.146c0.2,0.127,0.436,0.146,0.629,0.312
		c0.147,0.117,0.244,0.271,0.271,0.463c0.014,0.127-0.039,0.229-0.156,0.293c-0.191,0.086-0.402,0.007-0.51-0.185
		c-0.039-0.097-0.021-0.201,0.066-0.255l0.232-0.058c-0.136-0.168-0.367-0.3-0.581-0.303c-0.019,0.123,0.021,0.237,0.067,0.348
		c-0.193-0.025-0.25-0.222-0.256-0.385c-0.284-0.037-0.539,0.188-0.596,0.457c-0.062,0.228-0.082,0.461,0.038,0.678
		c0.141,0.244,0.405,0.319,0.663,0.368c-0.286,0.298-0.701,0.45-1.114,0.427c-0.377-0.018-0.713-0.291-0.81-0.647
		C638.324,580.413,638.367,580.222,638.433,580.032z"/>
	<polygon fill="#CD562D" points="636.054,583.097 638.347,584.965 638.347,584.964 638.347,584.965 640.996,583.938 
		638.812,582.089 	"/>
	<path fill="#E9B5A4" d="M639.51,569.821c0.217-0.741,1.003-1.107,1.734-1.081l0.018-0.135c-0.604-0.067-1.141,0.265-1.702,0.438
		c-0.188,0.062-0.391,0.045-0.567-0.041c-0.524-0.223-0.964-0.584-1.487-0.812l1.487-0.601c0.167-0.062,0.354-0.098,0.521-0.021
		c0.611,0.225,1.107,0.715,1.771,0.712l-0.004-0.124c-0.521-0.104-1.011-0.279-1.333-0.707c-0.271-0.354-0.336-0.832-0.148-1.214
		c0.115-0.251,0.401-0.437,0.689-0.438c0.486-0.033,0.975,0.229,1.211,0.646c-0.3-0.03-0.629,0.049-0.783,0.312
		c-0.154,0.262-0.197,0.566-0.041,0.854c0.092,0.143,0.244,0.302,0.436,0.266c0.021-0.16,0.135-0.312,0.312-0.314
		c-0.062,0.107-0.144,0.215-0.121,0.34c0.225,0.02,0.438-0.045,0.611-0.183c-0.121-0.058-0.295-0.094-0.271-0.254
		c0.029-0.258,0.371-0.35,0.574-0.188c0.231,0.216,0.043,0.522-0.191,0.673c-0.229,0.135-0.473,0.168-0.733,0.193l-0.015,0.148
		c0.195,0.1,0.439-0.021,0.666-0.041c0.314-0.029,0.562,0.199,0.846,0.314c-0.256,0.1-0.497,0.201-0.773,0.225
		c-0.148,0.014-0.271-0.098-0.404-0.129c-0.106-0.021-0.229-0.066-0.348-0.037l-0.011,0.146c0.205,0.113,0.438,0.118,0.646,0.271
		c0.156,0.106,0.263,0.256,0.297,0.44c0.021,0.125-0.027,0.233-0.146,0.306c-0.188,0.098-0.401,0.025-0.514-0.151
		c-0.041-0.09-0.034-0.201,0.06-0.256l0.229-0.071c-0.145-0.156-0.387-0.271-0.6-0.267c-0.008,0.124,0.035,0.236,0.092,0.342
		c-0.197-0.015-0.264-0.206-0.273-0.368c-0.287-0.02-0.523,0.229-0.568,0.491c-0.062,0.229-0.057,0.465,0.077,0.673
		c0.152,0.234,0.427,0.294,0.688,0.327c-0.269,0.312-0.672,0.491-1.084,0.494c-0.379,0.005-0.729-0.245-0.853-0.602
		C639.427,570.208,639.457,570.013,639.51,569.821z"/>
	<polygon fill="#CD562D" points="637.339,573.042 639.746,574.751 642.324,573.55 640.025,571.851 	"/>
	<path fill="#E9B5A4" d="M640.066,559.556c0.179-0.75,0.955-1.146,1.684-1.146l0.016-0.139c-0.605-0.044-1.131,0.312-1.686,0.519
		c-0.188,0.062-0.389,0.062-0.574-0.021c-0.531-0.194-0.986-0.544-1.518-0.755l1.465-0.65c0.164-0.068,0.352-0.113,0.525-0.052
		c0.614,0.199,1.133,0.675,1.795,0.646l-0.016-0.125c-0.521-0.076-1.018-0.237-1.354-0.651c-0.279-0.339-0.367-0.813-0.196-1.208
		c0.106-0.255,0.386-0.44,0.675-0.464c0.486-0.051,0.98,0.193,1.232,0.594c-0.299-0.021-0.625,0.072-0.771,0.344
		c-0.143,0.269-0.176,0.569-0.008,0.851c0.104,0.14,0.256,0.291,0.443,0.246c0.018-0.16,0.121-0.317,0.295-0.325
		c-0.053,0.11-0.129,0.219-0.107,0.344c0.229,0.007,0.439-0.062,0.605-0.207c-0.125-0.053-0.299-0.08-0.283-0.239
		c0.021-0.261,0.359-0.359,0.568-0.205c0.239,0.2,0.062,0.521-0.166,0.676c-0.229,0.145-0.475,0.188-0.73,0.229l-0.004,0.146
		c0.197,0.092,0.438-0.037,0.664-0.067c0.312-0.04,0.57,0.182,0.854,0.284c-0.254,0.104-0.488,0.223-0.768,0.25
		c-0.15,0.021-0.273-0.082-0.41-0.109c-0.105-0.018-0.23-0.059-0.35-0.021l-0.004,0.146c0.211,0.104,0.441,0.104,0.65,0.241
		c0.16,0.104,0.271,0.243,0.314,0.436c0.021,0.123-0.021,0.229-0.137,0.306c-0.184,0.104-0.4,0.05-0.521-0.129l0.047-0.259
		l0.229-0.078c-0.146-0.153-0.396-0.261-0.605-0.241l0.104,0.337c-0.199-0.007-0.271-0.192-0.291-0.354
		c-0.287-0.011-0.521,0.241-0.556,0.515c-0.048,0.229-0.026,0.468,0.108,0.669c0.166,0.229,0.438,0.271,0.701,0.297
		c-0.252,0.324-0.646,0.521-1.062,0.541c-0.375,0.021-0.739-0.213-0.877-0.562C640,559.946,640.019,559.751,640.066,559.556z"/>
	<polygon fill="#CD562D" points="638.046,562.882 640.529,564.472 643.051,563.146 640.674,561.562 	"/>
	<path fill="#E9B5A4" d="M640.259,549.268c0.148-0.757,0.928-1.175,1.653-1.19l0.014-0.136c-0.613-0.026-1.125,0.341-1.676,0.558
		c-0.188,0.073-0.387,0.072-0.574-0.002c-0.536-0.188-0.997-0.521-1.533-0.719l1.449-0.693c0.162-0.073,0.354-0.121,0.525-0.062
		c0.624,0.188,1.145,0.646,1.809,0.601l-0.012-0.123c-0.525-0.063-1.023-0.213-1.373-0.62c-0.286-0.333-0.384-0.812-0.221-1.204
		c0.101-0.258,0.375-0.455,0.663-0.479c0.482-0.062,0.98,0.173,1.247,0.562c-0.306-0.013-0.625,0.085-0.767,0.355
		c-0.139,0.27-0.166,0.577,0.01,0.849c0.104,0.138,0.266,0.284,0.447,0.236c0.019-0.16,0.113-0.32,0.289-0.332
		c-0.051,0.111-0.125,0.221-0.102,0.344c0.225,0.001,0.438-0.073,0.602-0.219c-0.125-0.05-0.301-0.075-0.287-0.235
		c0.018-0.259,0.354-0.367,0.562-0.22c0.248,0.197,0.067,0.519-0.152,0.678c-0.225,0.146-0.461,0.195-0.725,0.244v0.147
		c0.194,0.087,0.438-0.049,0.662-0.084c0.312-0.049,0.568,0.163,0.854,0.264c-0.25,0.108-0.481,0.23-0.762,0.268
		c-0.15,0.023-0.273-0.07-0.412-0.101c-0.111-0.013-0.236-0.051-0.352-0.016v0.146c0.215,0.103,0.445,0.087,0.661,0.228
		c0.157,0.102,0.271,0.232,0.317,0.424c0.027,0.123-0.012,0.229-0.123,0.307c-0.178,0.109-0.396,0.06-0.521-0.113
		c-0.057-0.088-0.057-0.191,0.037-0.258l0.227-0.085c-0.148-0.147-0.398-0.249-0.611-0.225l0.111,0.332
		c-0.199,0-0.273-0.188-0.299-0.352c-0.287-0.002-0.518,0.256-0.537,0.525c-0.037,0.232-0.016,0.469,0.133,0.666
		c0.172,0.223,0.445,0.262,0.709,0.273c-0.242,0.329-0.631,0.533-1.043,0.566c-0.375,0.034-0.747-0.188-0.895-0.535
		C640.206,549.66,640.22,549.464,640.259,549.268z"/>
	<polygon fill="#CD562D" points="638.341,552.66 640.875,554.169 643.352,552.763 640.926,551.257 	"/>
	<path fill="#D36845" d="M646.057,537.472l0.33,1.115h-6.604h-0.022h-6.604l0.33-1.115h0.924c0.729-0.797,2.396-2.963,3.696-7.273
		h-0.065v-225.86h3.469v225.859h-0.062c1.301,4.312,2.965,6.479,3.691,7.273L646.057,537.472"/>
	<path fill="#D36845" d="M636.867,569.087c-0.332,0.97-2.865,2.617-2.865,2.617c-2.422-6.59,3.195-14.828,3.195-14.828
		s1.314-0.776-0.33,0c-1.652,0.775-3.086-0.388-3.086-0.388c-1.211,9.688-6.607,11.437-6.607,11.437
		c-0.771-3.489,0.882-4.646,0.882-4.646c-13.438,5.906-12.337-5.912-12.337-5.912s0.227,3.974,4.404,4.355
		c6.926,0.646,12.447-7.172,12.998-9.595c0.285-1.249,1.037-1.948,1.789-2.168V549.7h2.557c0.219-0.777,1.75-7.074-4.646-11.113
		h6.938h0.022h6.938c-6.396,4.04-4.869,10.336-4.646,11.113h2.557v0.258c0.754,0.218,1.508,0.918,1.793,2.168
		c0.551,2.423,6.074,10.235,12.996,9.595c4.184-0.387,4.404-4.355,4.404-4.355s1.102,11.818-12.336,5.911
		c0,0,1.646,1.159,0.883,4.647c0,0-5.396-1.744-6.609-11.437c0,0-1.432,1.163-3.084,0.388c-1.647-0.776-0.33,0-0.33,0
		s5.615,8.238,3.193,14.828c0,0-2.533-1.647-2.863-2.617c0,0,0.633,4.75-2.892,7.854h-0.022
		C636.231,573.837,636.867,569.087,636.867,569.087z"/>
	<circle fill="none" stroke="#C63D0F" stroke-width="14" stroke-miterlimit="10" cx="639.865" cy="640" r="60"/>
	<circle fill="none" stroke="#C63D0F" stroke-miterlimit="10" cx="639.865" cy="639.852" r="70"/>
	<path fill="#C63D0F" d="M639.769,313.333v0.5c10.909,0,20.781,4.42,27.933,11.569c7.146,7.15,11.567,17.021,11.567,27.931
		s-4.421,20.781-11.567,27.931c-7.149,7.149-17.021,11.569-27.933,11.569c-10.907,0-20.779-4.42-27.931-11.569
		c-7.148-7.149-11.568-17.021-11.568-27.931s4.42-20.781,11.568-27.931c7.15-7.149,17.021-11.569,27.932-11.569L639.769,313.333
		l0.001-0.5c-22.366,0-40.5,18.132-40.5,40.5s18.134,40.5,40.5,40.5c22.367,0,40.498-18.132,40.5-40.5
		c-0.002-22.368-18.133-40.5-40.5-40.5L639.769,313.333"/>
	<path fill="#CC5027" d="M641.509,316.373v14.024c2.55,0.19,4.967,0.792,7.209,1.74c4.119,1.74,7.646,4.666,10.126,8.34
		c2.48,3.68,3.921,8.067,3.924,12.855c-0.001,3.195-0.644,6.203-1.805,8.951c-1.74,4.118-4.666,7.644-8.34,10.125
		c-3.229,2.177-7.003,3.553-11.114,3.859v14.024c4.462-0.207,8.741-1.21,12.663-2.87c6.649-2.814,12.285-7.496,16.272-13.397
		c3.987-5.897,6.324-13.053,6.321-20.692c0.001-5.089-1.033-9.974-2.908-14.404c-2.813-6.648-7.496-12.284-13.397-16.271
		C655.014,318.972,648.492,316.697,641.509,316.373 M638.04,316.373c-4.467,0.206-8.75,1.209-12.677,2.871
		c-6.649,2.813-12.284,7.496-16.272,13.397c-3.989,5.896-6.326,13.053-6.323,20.692c-0.001,5.089,1.035,9.974,2.911,14.404
		c2.814,6.648,7.496,12.284,13.397,16.272c5.45,3.686,11.976,5.962,18.964,6.284v-14.024c-2.555-0.188-4.976-0.791-7.223-1.741
		c-4.118-1.74-7.646-4.666-10.125-8.341c-2.481-3.679-3.923-8.067-3.926-12.854c0.001-3.195,0.646-6.203,1.807-8.95
		c1.739-4.119,4.666-7.645,8.341-10.126c3.23-2.179,7.011-3.556,11.127-3.86L638.04,316.373"/>
	<path fill="#C74114" d="M641.509,376.268c-0.574,0.042-1.155,0.064-1.741,0.065c-0.582,0-1.156-0.022-1.728-0.064v14.024
		c0.567,0.026,1.14,0.04,1.713,0.04c0.005,0,0.009,0,0.014,0c0.583,0,1.164-0.014,1.741-0.041L641.509,376.268 M639.78,316.333
		c-0.005,0-0.008,0-0.015,0l0,0c-0.577,0-1.153,0.013-1.728,0.04v14.024c0.569-0.042,1.146-0.064,1.728-0.064l0,0
		c0.588,0,1.17,0.022,1.741,0.064v-14.024C640.936,316.346,640.359,316.333,639.78,316.333"/>
	<path fill="#C63D0F" d="M645.451,285.428c0.481,2.375,0.918,4.879,1.408,7.469c0.438,2.59,0.924,5.266,1.317,7.986
		c0.438,2.72,0.791,5.482,1.188,8.246c0.383,2.762,1.014,5.525,1.66,8.245c0.299,1.36,0.621,2.709,0.848,4.041
		c0.213,1.333,0.361,2.648,0.396,3.944c0.074,2.59-0.295,5.094-0.84,7.469c-0.526,2.375-1.225,4.62-2.018,6.691
		c-1.597,4.144-3.602,7.597-5.33,10.015c-0.854,1.208-1.615,2.158-2.205,2.806c-0.562,0.647-0.912,0.993-0.912,0.993h-2.397
		c0,0-0.354-0.345-0.912-0.993c-0.595-0.648-1.354-1.598-2.206-2.806c-1.729-2.418-3.732-5.87-5.329-10.015
		c-0.794-2.072-1.485-4.317-2.021-6.691c-0.544-2.375-0.914-4.878-0.837-7.469c0.035-1.295,0.188-2.61,0.396-3.944
		c0.226-1.334,0.549-2.683,0.85-4.041c0.646-2.72,1.277-5.483,1.658-8.245c0.396-2.763,0.75-5.526,1.188-8.246
		c0.396-2.719,0.881-5.397,1.32-7.986c0.49-2.59,0.923-5.094,1.408-7.469c0.477-2.374,0.924-4.62,1.338-6.691
		C635.829,276.665,644.975,283.054,645.451,285.428z"/>
	<path fill="none" stroke="#E9E9E9" stroke-width="2" stroke-miterlimit="10" d="M645.451,285.428
		c0.481,2.375,0.918,4.879,1.408,7.469c0.438,2.59,0.924,5.266,1.317,7.986c0.438,2.72,0.791,5.482,1.188,8.246
		c0.383,2.762,1.014,5.525,1.66,8.245c0.299,1.36,0.621,2.709,0.848,4.041c0.213,1.333,0.361,2.648,0.396,3.944
		c0.074,2.59-0.295,5.094-0.84,7.469c-0.526,2.375-1.225,4.62-2.018,6.691c-1.597,4.144-3.602,7.597-5.33,10.015
		c-0.854,1.208-1.615,2.158-2.205,2.806c-0.562,0.647-0.912,0.993-0.912,0.993h-2.397c0,0-0.354-0.345-0.912-0.993
		c-0.595-0.648-1.354-1.598-2.206-2.806c-1.729-2.418-3.732-5.87-5.329-10.015c-0.794-2.072-1.485-4.317-2.021-6.691
		c-0.544-2.375-0.914-4.878-0.837-7.469c0.035-1.295,0.188-2.61,0.396-3.944c0.226-1.334,0.549-2.683,0.85-4.041
		c0.646-2.72,1.277-5.483,1.658-8.245c0.396-2.763,0.75-5.526,1.188-8.246c0.396-2.719,0.881-5.397,1.32-7.986
		c0.49-2.59,0.923-5.094,1.408-7.469c0.477-2.374,0.924-4.62,1.338-6.691C635.829,276.665,644.975,283.054,645.451,285.428z"/>
	<polygon fill="#C63D0F" points="640.333,253.017 635.423,278.737 646.387,290.352 	"/>
	<polygon fill="none" stroke="#E9E9E9" stroke-width="2" stroke-miterlimit="10" points="640.333,253.017 635.423,278.737 
		646.387,290.352 	"/>
	<path fill="#C63D0F" d="M627.263,325.359l19.124-35.007L627.263,325.359z"/>
	<path fill="none" stroke="#E9E9E9" stroke-width="2" stroke-miterlimit="10" d="M627.263,325.359l19.124-35.007L627.263,325.359z"
		/>
	<line fill="none" x1="627.263" y1="325.359" x2="649.414" y2="339.519"/>
	
		<line fill="none" stroke="#E9E9E9" stroke-width="2" stroke-miterlimit="10" x1="627.263" y1="325.359" x2="649.414" y2="339.519"/>
</g>
</svg>
