<?xml version="1.0" encoding="utf-8"?>
<!-- Generator: Adobe Illustrator 16.0.3, SVG Export Plug-In . SVG Version: 6.00 Build 0)  -->
<!DOCTYPE svg PUBLIC "-//W3C//DTD SVG 1.1//EN" "http://www.w3.org/Graphics/SVG/1.1/DTD/svg11.dtd">
<svg version="1.1" id="Layer_1" xmlns="http://www.w3.org/2000/svg" xmlns:xlink="http://www.w3.org/1999/xlink" x="0px" y="0px"
	 width="1280px" height="1280px" viewBox="0 0 1280 1280" enable-background="new 0 0 1280 1280" xml:space="preserve">
<circle fill="none" stroke="#E9E9E9" stroke-miterlimit="10" cx="639.865" cy="639.851" r="640"/>
<g>
	<line fill="none" x1="640.083" y1="653.999" x2="640.083" y2="200.5"/>
	<g>
		<g>
			<g>
				<g>
					<path fill="#676464" d="M644.399,566.45l0.249,0.835h-4.984h-0.018h-4.983l0.249-0.835h0.696c0.552-0.6,1.807-2.22,2.79-5.453
						h-0.052V200.5h2.615v360.497h-0.049c0.979,3.233,2.233,4.856,2.787,5.453H644.399z"/>
				</g>
				<g>
					<path fill="#676464" d="M637.739,590.135c-0.255,0.729-2.198,1.961-2.198,1.961c-1.857-4.937,2.451-11.107,2.451-11.107
						s1.012-0.582-0.253,0c-1.27,0.581-2.367-0.292-2.367-0.292c-0.929,7.261-5.068,8.566-5.068,8.566
						c-0.592-2.612,0.679-3.483,0.679-3.483c-10.31,4.429-9.465-4.431-9.465-4.431s0.17,2.978,3.38,3.269
						c5.312,0.479,9.546-5.373,9.97-7.188c0.219-0.936,0.795-1.459,1.373-1.625v-0.191h1.96c0.168-0.583,1.342-5.3-3.564-8.326h5.32
						h0.018h5.324c-4.909,3.026-3.735,7.743-3.567,8.326h1.963v0.191c0.575,0.164,1.153,0.688,1.37,1.625
						c0.427,1.815,4.662,7.668,9.973,7.188c3.208-0.291,3.378-3.269,3.378-3.269s0.845,8.857-9.462,4.431
						c0,0,1.268,0.872,0.677,3.483c0,0-4.139-1.307-5.068-8.566c0,0-1.1,0.872-2.363,0.292c-1.271-0.582-0.256,0-0.256,0
						s4.309,6.171,2.45,11.107c0,0-1.94-1.232-2.193-1.961c0,0,0.483,3.56-2.221,5.882h-0.018
						C637.251,593.693,637.739,590.135,637.739,590.135z"/>
				</g>
			</g>
		</g>
	</g>
</g>
<circle fill="none" stroke="#3B3738" stroke-width="14" stroke-miterlimit="10" cx="639.865" cy="640" r="40"/>
<circle fill="none" stroke="#3B3738" stroke-miterlimit="10" cx="639.864" cy="639.852" r="50"/>
<g>
	<path fill="#3B3738" stroke="#E9E9E9" stroke-width="2" stroke-miterlimit="10" d="M642.209,148.752
		c0.041,0.232,0.083,0.469,0.126,0.71c0.207,1.156,0.443,2.412,0.669,3.753c0.04,0.241,0.08,0.485,0.119,0.733
		c0.311,1.904,0.646,3.966,1.002,6.148c0.365,2.183,0.689,4.482,1.057,6.864c0.332,2.379,0.693,4.839,0.992,7.338
		c0.251,1.913,0.465,3.849,0.687,5.79c0.067,0.596,0.137,1.192,0.207,1.788c0.284,2.54,0.76,5.078,1.241,7.578
		c0.228,1.25,0.472,2.49,0.64,3.714c0.164,1.225,0.264,2.435,0.297,3.625c0.043,2.381-0.219,4.682-0.627,6.863
		c-0.404,2.182-0.908,4.245-1.523,6.149c-0.315,1.023-0.657,2-1.012,2.926c-0.963,2.519-2.027,4.653-2.974,6.278
		c-0.311,0.555-0.646,1.051-0.918,1.482c-0.272,0.432-0.514,0.799-0.737,1.096c-0.42,0.595-0.687,0.912-0.687,0.912h-1.801
		c0,0-0.265-0.317-0.685-0.912c-0.229-0.298-0.464-0.665-0.736-1.096c-0.272-0.431-0.61-0.927-0.918-1.482
		c-1.026-1.763-2.193-4.126-3.221-6.933c-0.268-0.728-0.523-1.486-0.768-2.271c-0.613-1.904-1.12-3.967-1.521-6.149
		c-0.409-2.182-0.672-4.482-0.627-6.863c0.032-1.19,0.132-2.4,0.296-3.625c0.169-1.225,0.412-2.464,0.637-3.714
		c0.484-2.5,0.958-5.038,1.244-7.578c0.298-2.539,0.562-5.077,0.891-7.578c0.302-2.499,0.66-4.958,0.992-7.338
		c0.288-1.863,0.549-3.678,0.825-5.425c0.076-0.485,0.154-0.965,0.232-1.439C635.963,157.916,641.938,147.205,642.209,148.752z"/>
	<polyline fill="#3B3738" stroke="#E9E9E9" stroke-width="2" stroke-miterlimit="10" points="640,138.501 642.209,148.752 
		635.607,160.098 	"/>
</g>
<circle opacity="0.9" fill="none" stroke="#3B3738" stroke-width="14" stroke-miterlimit="10" enable-background="new    " cx="639.864" cy="220" r="20"/>
<circle fill="none" stroke="#3B3738" stroke-miterlimit="10" cx="639.864" cy="220" r="30"/>
<polyline fill="none" stroke="#E9E9E9" stroke-width="2" stroke-miterlimit="10" points="635.607,163.501 645.953,178.751 
	646.859,180.088 "/>
<polyline fill="none" stroke="#E9E9E9" stroke-width="2" stroke-miterlimit="10" points="646.859,180.088 631.885,207.154 
	638.967,222.499 648.221,205.59 648.309,189.454 "/>
<polyline fill="none" stroke="#E9E9E9" stroke-width="2" stroke-miterlimit="10" points="635.377,161.535 631.425,189.454 
	631.885,207.154 "/>
</svg>
