<?xml version="1.0" encoding="utf-8"?>
<!-- Generator: Adobe Illustrator 16.0.3, SVG Export Plug-In . SVG Version: 6.00 Build 0)  -->
<!DOCTYPE svg PUBLIC "-//W3C//DTD SVG 1.1//EN" "http://www.w3.org/Graphics/SVG/1.1/DTD/svg11.dtd">
<svg version="1.1" id="Layer_1" xmlns="http://www.w3.org/2000/svg" xmlns:xlink="http://www.w3.org/1999/xlink" x="0px" y="0px"
	 width="1280px" height="1280px" viewBox="0 0 1280 1280" enable-background="new 0 0 1280 1280" xml:space="preserve">
<circle fill="none" stroke="#E9E9E9" stroke-miterlimit="10" cx="639.865" cy="639.851" r="640"/>
<g>
	<line fill="none" x1="640.833" y1="656.166" x2="640.833" y2="110.613"/>
	<g>
		<g>
			<g>
				<g>
					<path fill="#22BAA8" d="M645.174,551.345l0.25,1.001h-5.013h-0.019h-5.012l0.251-1.001h0.7
						c0.555-0.714,1.814-2.655,2.805-6.526h-0.051V110.613h2.631v434.205h-0.05c0.985,3.87,2.249,5.813,2.803,6.526L645.174,551.345
						L645.174,551.345z"/>
				</g>
				<g>
					<path fill="#22BAA8" d="M638.204,579.703c-0.252,0.87-2.174,2.348-2.174,2.348c-1.837-5.911,2.424-13.301,2.424-13.301
						s1-0.695-0.251,0c-1.253,0.695-2.341-0.349-2.341-0.349c-0.918,8.692-5.014,10.26-5.014,10.26
						c-0.585-3.13,0.669-4.173,0.669-4.173c-10.191,5.302-9.354-5.306-9.354-5.306s0.167,3.564,3.34,3.913
						c5.253,0.574,9.44-6.433,9.859-8.605c0.216-1.12,0.787-1.747,1.355-1.945v-0.229h1.938c0.166-0.696,1.327-6.347-3.524-9.97
						h5.261h0.02h5.265c-4.854,3.623-3.69,9.272-3.525,9.97h1.938v0.229c0.572,0.197,1.145,0.824,1.358,1.945
						c0.419,2.174,4.607,9.181,9.856,8.605c3.175-0.349,3.343-3.913,3.343-3.913s0.835,10.605-9.356,5.306
						c0,0,1.252,1.043,0.669,4.173c0,0-4.093-1.565-5.012-10.26c0,0-1.087,1.044-2.342,0.349c-1.253-0.695-0.248,0-0.248,0
						s4.259,7.389,2.424,13.301c0,0-1.923-1.478-2.174-2.348c0,0,0.48,4.26-2.192,7.042h-0.019
						C637.721,583.964,638.204,579.703,638.204,579.703z"/>
				</g>
			</g>
		</g>
	</g>
</g>
<circle fill="none" stroke="#22BAA8" stroke-width="14" stroke-miterlimit="10" cx="639.865" cy="640" r="20"/>
<circle fill="none" stroke="#22BAA8" stroke-miterlimit="10" cx="639.864" cy="639.852" r="30"/>
<g>
	<path fill="#22BAA8" stroke="#E9E9E9" stroke-width="2" stroke-miterlimit="10" d="M642.201,62.712
		c0.195,1.183,0.438,2.515,0.66,3.969c0.225,1.455,0.467,3.03,0.723,4.696c0.264,1.667,0.498,3.424,0.764,5.242
		c0.238,1.817,0.5,3.696,0.715,5.604c0.238,1.909,0.432,3.849,0.646,5.788c0.207,1.939,0.549,3.878,0.896,5.787
		c0.163,0.956,0.341,1.902,0.462,2.837c0.117,0.936,0.188,1.86,0.215,2.769c0.03,1.819-0.158,3.576-0.453,5.242
		c-0.293,1.666-0.656,3.243-1.102,4.696c-0.85,2.909-1.941,5.333-2.877,7.03c-0.223,0.424-0.465,0.803-0.661,1.131
		c-0.196,0.331-0.368,0.611-0.532,0.837c-0.305,0.454-0.494,0.697-0.494,0.697s-1.489-0.242-1.792-0.697
		c-0.165-0.228-0.334-0.508-0.532-0.837c-0.198-0.328-0.438-0.707-0.663-1.131c-0.933-1.698-2.025-4.121-2.878-7.03
		c-0.442-1.454-0.808-3.03-1.099-4.696c-0.058-0.322-0.11-0.647-0.158-0.977c-0.202-1.372-0.32-2.799-0.294-4.265
		c0.022-0.909,0.095-1.833,0.213-2.769c0.122-0.935,0.297-1.882,0.459-2.837c0.349-1.909,0.69-3.848,0.897-5.787
		c0.215-1.938,0.405-3.877,0.644-5.788c0.216-1.909,0.477-3.788,0.716-5.604c0.268-1.82,0.5-3.576,0.764-5.242
		c0.257-1.666,0.5-3.242,0.725-4.696C638.382,65.228,642.006,61.531,642.201,62.712z"/>
</g>
<circle opacity="0.8" fill="none" stroke="#22BAA8" stroke-width="14" stroke-miterlimit="10" enable-background="new    " cx="640.512" cy="111.447" r="10"/>
<circle fill="none" stroke="#22BAA8" stroke-miterlimit="10" cx="640.512" cy="111.447" r="20"/>
<polygon fill="#22BAA8" points="639.179,60.78 640.512,53.697 642.201,62.714 "/>
<polyline fill="#22BAA8" points="638.162,66.712 639.179,60.78 642.158,62.483 640.044,66.712 "/>
<path fill="#22BAA8" stroke="#E9E9E9" stroke-width="2" stroke-miterlimit="10" d="M646.604,92.779c0,0-12.418,3.208-12.854,6.058
	s2.821-21.925,2.821-21.925l3.833-25.746l2.931,18.667L646.604,92.779z"/>
<path fill="#22BAA8" stroke="#E9E9E9" stroke-width="2" stroke-miterlimit="10" d="M646.604,93.799c0,0,2.396,17.035-6.2,25.239
	c-7.736-11.038-6.654-20.201-6.654-18.992"/>
<path fill="#22BAA8" stroke="#E9E9E9" stroke-width="2" stroke-miterlimit="10" d="M633.742,101.798"/>
<line fill="none" stroke="#E9E9E9" stroke-width="2" stroke-miterlimit="10" x1="633.723" y1="101.447" x2="633.716" y2="98.837"/>
<line fill="none" stroke="#E9E9E9" stroke-width="2" stroke-miterlimit="10" x1="646.604" y1="92.779" x2="636.435" y2="77.94"/>
</svg>
